<?xml version="1.0" standalone="no"?>
<!DOCTYPE svg PUBLIC "-//W3C//DTD SVG 20010904//EN"
 "http://www.w3.org/TR/2001/REC-SVG-20010904/DTD/svg10.dtd">
<svg version="1.0" xmlns="http://www.w3.org/2000/svg"
 width="700.000000pt" height="700.000000pt" viewBox="0 0 700.000000 700.000000"
 preserveAspectRatio="xMidYMid meet">
<metadata>
Created by potrace 1.14, written by Peter Selinger 2001-2017
</metadata>
<g transform="translate(0.000000,700.000000) scale(0.100000,-0.100000)"
fill="#000000" stroke="none">
<path d="M3643 6429 c55 -63 97 -143 97 -186 0 -89 -35 -85 -124 12 -41 46
-87 85 -117 100 -59 31 -150 55 -202 55 l-39 0 52 -57 c87 -95 124 -169 113
-226 l-5 -25 -44 34 c-63 48 -157 74 -263 74 -47 0 -92 -4 -98 -8 -8 -5 9 -19
50 -39 71 -35 151 -102 173 -145 9 -16 14 -31 12 -32 -2 -1 -28 -8 -58 -15
-30 -8 -93 -30 -140 -50 -355 -152 -574 -502 -639 -1021 -18 -139 -31 -474
-31 -800 0 -229 -4 -322 -15 -374 -18 -85 -43 -116 -95 -116 -45 0 -75 21
-103 73 -19 37 -22 57 -22 157 0 91 4 122 18 148 20 37 16 39 -28 12 -55 -34
-115 -129 -155 -245 l-17 -50 -21 70 c-12 39 -27 95 -35 125 -14 54 -15 54
-25 28 -47 -115 -37 -334 23 -513 l7 -20 -17 20 c-10 11 -40 67 -69 125 l-51
105 -3 -50 c-17 -261 171 -741 410 -1046 124 -159 334 -341 516 -450 l90 -53
7 -65 c9 -89 53 -253 115 -439 29 -85 48 -157 44 -161 -5 -4 -34 -15 -64 -24
-31 -9 -65 -23 -75 -32 -18 -13 -14 -14 51 -15 39 0 120 -9 179 -20 60 -10
111 -17 113 -15 9 9 -30 56 -61 76 -18 10 -49 22 -70 26 l-39 6 7 46 c10 67
69 264 105 351 87 210 205 348 339 395 94 32 131 12 181 -98 63 -140 100 -338
99 -527 -1 -166 -3 -170 -64 -186 -28 -7 -68 -21 -90 -30 l-40 -18 90 -8 c50
-4 132 -16 183 -26 50 -10 92 -15 92 -11 0 15 -53 70 -81 84 -15 8 -39 15 -54
15 -14 0 -25 3 -25 8 1 4 26 27 56 52 149 120 239 269 263 428 6 41 9 47 29
44 34 -5 130 26 202 65 325 175 685 676 761 1058 18 93 19 371 0 445 -18 73
-73 189 -104 219 l-26 23 26 -78 c42 -134 21 -261 -41 -252 -24 3 -33 34 -35
114 -2 113 -60 266 -109 293 -18 10 -18 8 -1 -42 25 -71 25 -163 1 -176 -27
-15 -75 18 -108 74 -15 26 -44 93 -64 148 -58 159 -112 281 -236 528 -140 280
-180 377 -195 466 -15 88 -2 140 51 197 l39 42 -182 33 c-386 71 -613 142
-695 219 -39 37 -47 70 -28 115 46 111 276 173 551 148 265 -23 498 -107 598
-215 l30 -31 -8 85 c-18 215 -65 366 -140 449 -49 54 -144 107 -234 129 -39
10 -73 20 -75 23 -3 2 -12 37 -20 77 -33 158 -145 298 -298 370 -46 22 -96 43
-112 46 -28 7 -28 6 17 -45z m-123 -619 c11 -11 20 -33 20 -49 0 -71 -80 -101
-127 -47 -28 33 -29 56 -2 90 26 33 79 36 109 6z m201 -1104 c-35 -72 -124
-146 -147 -123 -12 12 43 102 101 165 l60 66 3 -33 c2 -18 -6 -51 -17 -75z
m146 53 c86 -53 138 -159 78 -159 -43 0 -155 130 -155 180 0 14 34 5 77 -21z
m-52 -102 c49 -108 94 -257 101 -334 6 -59 4 -71 -14 -93 l-20 -25 -22 20
c-59 53 -90 183 -90 375 0 71 3 130 6 130 3 0 20 -33 39 -73z"/>
</g>
</svg>
