<svg width="32" height="32" viewBox="0 0 32 32" xmlns="http://www.w3.org/2000/svg" xmlns:xlink="http://www.w3.org/1999/xlink">
    <!-- https://css-tricks.com/svg-favicons-in-action/ -->
    <style>
        text {
            font-weight: 600;
            font-size: 15px;
            font-family: ui-sans-serif, system-ui, -apple-system, BlinkMacSystemFont, "Segoe UI", Roboto, "Helvetica Neue", Arial, "Noto Sans", sans-serif, "Apple Color Emoji", "Segoe UI Emoji", "Segoe UI Symbol", "Noto Color Emoji";
        }
    </style>
    <path id="Background" fill="#f9b000" fill-rule="evenodd" stroke="none" d="M 0 32 L 32 32 L 32 0 L 0 0 Z"/>
    <filter id="filter1" x="0" y="0" width="32" height="32" filterUnits="userSpaceOnUse" primitiveUnits="userSpaceOnUse" color-interpolation-filters="sRGB">
        <feGaussianBlur stdDeviation="0.75"/>
        <feOffset dx="0.048525" dy="0.03939" result="offsetblur"/>
        <feFlood flood-color="#000000" flood-opacity="0.095676"/>
        <feComposite in2="offsetblur" operator="in"/>
        <feMerge>
            <feMergeNode/>
            <feMergeNode in="SourceGraphic"/>
        </feMerge>
    </filter>
    <path id="Chicken" fill="#ffffff" fill-rule="evenodd" stroke="none" filter="url(#filter1)" d="M 18.177734 27.947266 C 17.605547 27.832264 17.035547 27.683437 16.427734 27.742188 C 16.726053 27.571497 17.028381 27.462059 17.300781 27.439453 C 17.623283 26.549143 17.108402 23.701344 16.441406 23.695313 C 15.758178 23.752964 14.620963 24.380045 14.017578 27.417969 C 14.383891 27.399113 14.692656 27.5471 14.855469 27.931641 C 14.282035 27.816641 13.713277 27.667501 13.105469 27.726563 C 13.386374 27.565714 13.669993 27.458679 13.929688 27.427734 C 13.679238 26.657084 13.109244 25.171394 13.138672 24.373047 C 12.19974 23.864693 11.462873 23.282677 10.890625 22.664063 C 10.876249 22.657244 10.861013 22.649244 10.84375 22.632813 C 9.705626 21.550003 8.300313 18.815311 8.492188 17.039063 C 8.834085 17.804642 8.968993 18.05739 9.142578 18.236328 C 8.847585 17.533875 8.69169 16.396772 9.023438 15.605469 C 9.166788 16.201824 9.257069 16.530294 9.353516 16.767578 C 9.5918 15.94763 9.993257 15.392017 10.365234 15.314453 C 10.022735 15.698202 9.998604 17.230076 10.777344 17.236328 C 11.556085 17.242577 11.115078 15.009491 11.337891 11.894531 C 11.560703 8.779568 12.910028 6.790155 15.335938 6.332031 C 15.335596 6.33082 15.334345 6.329355 15.333984 6.328125 C 15.30082 6.331745 15.269763 6.334005 15.236328 6.337891 C 15.100703 5.906328 14.380312 5.483517 14.046875 5.392578 C 14.696869 5.166016 15.69625 5.409767 15.984375 5.861328 C 16.124687 5.526642 15.99726 5.114452 15.236328 4.400391 C 16.308506 4.431641 16.739296 4.837578 17.029297 5.267578 C 17.042341 5.286968 17.055216 5.303776 17.068359 5.320313 C 17.099495 5.353624 17.132181 5.387224 17.164063 5.416016 C 17.164063 5.416016 17.166016 5.417969 17.166016 5.417969 C 17.419611 5.610287 17.629477 5.304621 17.376953 4.830078 C 17.224766 4.545078 16.958595 4.174219 16.761719 4.082031 C 17.817959 4.269531 18.836718 5.1747 18.878906 6.382813 C 18.867212 6.380869 18.848623 6.378984 18.835938 6.376953 C 18.836214 6.379053 18.837616 6.380709 18.837891 6.382813 C 20.513184 6.67375 20.887342 7.486036 20.996094 9.509766 C 20.071405 8.262911 16.382265 7.952362 15.673828 8.949219 C 15.023212 9.863594 17.371895 10.323982 19.78125 10.748047 C 18.398693 11.70162 20.400867 13.500389 21.460938 16.802734 C 21.825018 17.54287 22.163671 17.521093 22.195313 17.253906 C 22.224688 17.002968 22.136641 16.570078 21.962891 16.306641 C 22.770702 16.739141 22.519375 18.206173 22.6875 18.263672 C 23.073124 18.396797 23.228907 17.601791 22.800781 16.732422 C 23.571407 17.320541 23.644531 18.932346 23.363281 20.160156 C 23.004845 21.721083 20.939678 24.85211 18.96875 25.052734 C 18.972681 25.044579 18.98892 25.005453 18.994141 24.994141 C 18.967983 25.000751 18.942446 25.007349 18.916016 25.013672 C 18.826084 25.672363 18.752354 26.354889 17.378906 27.435547 C 17.728647 27.428474 18.020512 27.57593 18.177734 27.947266 Z M 18.068359 14.458984 C 18.61211 14.483047 18.052422 12.824532 17.630859 12.042969 C 17.59586 12.311405 17.465235 13.96711 18.068359 14.458984 Z M 16.757813 12.800781 C 16.782803 12.804129 16.818321 12.794102 16.867188 12.769531 C 17.258125 12.572968 17.538828 12.063046 17.486328 11.716797 C 16.962421 12.131054 16.582876 12.777351 16.757813 12.800781 Z M 18.427734 12.705078 C 18.47521 12.706308 18.509844 12.683165 18.523438 12.628906 C 18.595938 12.339531 18.172499 11.946718 17.679688 11.800781 C 17.769062 12.230391 18.222006 12.699749 18.427734 12.705078 Z M 16.224609 7.734375 C 16.41334 7.735882 16.567244 7.585196 16.570313 7.396484 C 16.573383 7.207773 16.423054 7.051508 16.234375 7.046875 C 16.042295 7.04479 15.885386 7.198551 15.882813 7.390625 C 15.88287 7.579363 16.035877 7.732868 16.224609 7.734375 Z"/>
</svg>
