<?xml version="1.0" encoding="UTF-8"?>
<!-- Generated by Pixelmator Pro 3.0.1 -->
<svg width="1024" height="1024" viewBox="0 0 1024 1024" xmlns="http://www.w3.org/2000/svg" xmlns:xlink="http://www.w3.org/1999/xlink">
    <path id="Path" fill="#ffffff" stroke="none" d="M 931.099976 730.919983 C 815.539978 888.47998 627.590027 954.369995 460.790009 901.049988 C 264.600006 838.349976 143.199997 824.210022 148.309998 1024.050049 C -107.82 563 6.78 126.309998 396.779999 15.73999 C 776.51001 -91.930054 1191.880005 375.299988 931.099976 730.919983"/>
    <path id="path1" fill="#e9b142" fill-rule="evenodd" stroke="none" d="M 659.900024 249.339966 C 656.419983 184.580017 644.409973 158.549988 590.799988 149.23999 C 585.059998 105.179993 568.340027 95.179993 532.48999 80.530029 C 554.070007 100.22998 556.340027 123.789978 545.369995 123.099976 C 529 118.450012 526.580017 90.219971 485.5 90.52002 C 507.079987 114.52002 507.600006 123.200012 500.809998 133.690002 C 490.200012 127.859985 480.100006 113.900024 448.809998 120.330017 C 472.649994 134.880005 477.529999 143.330017 478.75 147.650024 C 401.119995 162.309998 357.950012 225.969971 350.820007 325.650024 C 343.690002 425.329956 357.820007 496.73999 332.899994 496.540039 C 307.980011 496.339966 308.700012 447.329956 319.660004 435.049988 C 279.279999 443.469971 227.589996 627.049988 408.429993 724.960022 C 407.429993 752.090027 428.429993 804.960022 435.429993 827.840027 C 454.429993 725.75 491.820007 705.159973 514.099976 703.280029 C 536.210022 703.47998 553.099976 801.200012 540.390015 825.849976 C 588.080017 789.52002 590.340027 767.140015 593.299988 745.460022 C 669.880005 727.140015 710.919983 671.099976 688.159973 537.330017 C 664.159973 396.140015 569.630005 324.329956 620.969971 288.920044 C 543.869995 275.349976 468.73999 260.650024 489.559998 231.390015 C 512.22998 199.48999 630.309998 209.440002 659.900024 249.339966 Z"/>
    <path id="path2" fill="#e9b142" fill-rule="evenodd" stroke="none" d="M 475.579987 147.820007 C 471.23999 134.01001 448.179993 120.5 437.51001 117.589966 C 458.309998 110.339966 490.290009 118.140015 499.51001 132.589966 C 504 121.880005 499.929993 108.669983 475.579987 85.820007 C 509.890015 86.820007 523.659973 99.820007 532.940002 113.580017 C 542.599976 127.940002 553.580017 117.469971 544.059998 99.580017 C 539.190002 90.460022 530.650024 78.580017 524.349976 75.630005 C 558.150024 81.630005 590.789978 110.570007 592.140015 149.22998 C 576.309998 146.599976 531.869995 141.280029 475.579987 147.820007 Z"/>
    <path id="path3" fill="#ffffff" fill-rule="evenodd" stroke="none" d="M 547.570007 319.920044 C 528.409973 335.070007 515.23999 359.920044 527.75 353.630005 C 540.26001 347.339966 549.25 331 547.570007 319.920044 Z"/>
    <path id="path4" fill="#ffffff" fill-rule="evenodd" stroke="none" d="M 553.77002 322.650024 C 557.289978 339.570007 578.450012 358.369995 580.77002 349.109985 C 583.090027 339.849976 569.539978 327.320007 553.77002 322.650024 Z"/>
    <path id="path5" fill="#ffffff" fill-rule="evenodd" stroke="none" d="M 552.169983 330.369995 C 551.049988 338.959961 546.869995 391.940002 566.169983 407.679993 C 583.570007 408.450012 565.659973 355.380005 552.169983 330.369995 Z"/>
    <path id="path6" fill="#e9b142" fill-rule="evenodd" stroke="none" d="M 595 746.700012 C 658.070007 740.280029 724.140015 640.099976 735.609985 590.150024 C 744.609985 550.859985 742.27002 499.25 717.609985 480.429993 C 731.309998 508.25 726.349976 533.690002 714.01001 529.429993 C 708.630005 527.590027 716.690002 480.640015 690.840027 466.799988 C 696.400024 475.22998 699.200012 489.109985 698.26001 497.140015 C 697.179993 506.26001 684.919983 506.450012 672.419983 477.640015 C 690.52002 519.390015 602.76001 730.599976 595 746.700012 Z"/>
    <path id="path7" fill="#e9b142" fill-rule="evenodd" stroke="none" d="M 407.350006 832.219971 C 430.350006 819.049988 454.119995 817 463.350006 838.799988 C 445 835.119995 426.799988 830.330017 407.350006 832.219971 Z"/>
    <path id="path8" fill="#e9b142" fill-rule="evenodd" stroke="none" d="M 513.700012 832.75 C 536.700012 819.590027 560.469971 817.539978 569.700012 839.340027 C 551.390015 835.659973 533.150024 830.869995 513.700012 832.75 Z"/>
    <path id="path9" fill="#e9b142" fill-rule="evenodd" stroke="none" d="M 276.75 444.349976 C 289.48999 497.349976 289.079987 485.459961 316.410004 522.969971 C 330.959991 559.409973 306.410004 559.150024 291.350006 545.77002 C 276.290009 532.390015 262.5 478.339966 276.75 444.349976 Z"/>
    <path id="path10" fill="#e9b142" fill-rule="evenodd" stroke="none" d="M 259.779999 490.23999 C 282.019989 540.039978 276.779999 522.179993 310.540009 554.049988 C 331.540009 587.200012 349.540009 683.049988 335.01001 669.219971 C 298.589996 634.570007 253.639999 547.080017 259.779999 490.23999 Z"/>
    <path id="path11" fill="#ffffff" fill-rule="evenodd" stroke="none" d="M 507.519989 170.48999 C 513.557739 170.638245 518.346802 175.626831 518.248535 181.665588 C 518.15033 187.704346 513.201599 192.534546 507.162201 192.486328 C 501.122803 192.43811 496.251831 187.529602 496.25 181.48999 C 496.332336 175.343628 501.373444 170.423279 507.519989 170.48999 Z"/>
</svg>
